<svg width="20" height="20" viewBox="0 0 20 20" fill="none" xmlns="http://www.w3.org/2000/svg">
<g clip-path="url(#clip0_10_13)">
<path d="M14.7368 21.0526C15.4347 21.0526 16.1041 21.3299 16.5976 21.8234C17.0911 22.3169 17.3684 22.9863 17.3684 23.6842C17.3684 24.3822 17.0911 25.0515 16.5976 25.545C16.1041 26.0385 15.4347 26.3158 14.7368 26.3158C14.0388 26.3158 13.3695 26.0385 12.876 25.545C12.3825 25.0515 12.1052 24.3822 12.1052 23.6842C12.1052 22.9863 12.3825 22.3169 12.876 21.8234C13.3695 21.3299 14.0388 21.0526 14.7368 21.0526ZM23.6842 21.0526C24.3821 21.0526 25.0514 21.3299 25.545 21.8234C26.0385 22.3169 26.3157 22.9863 26.3157 23.6842C26.3157 24.3822 26.0385 25.0515 25.545 25.545C25.0514 26.0385 24.3821 26.3158 23.6842 26.3158C22.9862 26.3158 22.3169 26.0385 21.8233 25.545C21.3298 25.0515 21.0526 24.3822 21.0526 23.6842C21.0526 22.9863 21.3298 22.3169 21.8233 21.8234C22.3169 21.3299 22.9862 21.0526 23.6842 21.0526ZM5.78942 21.0526C6.48735 21.0526 7.15671 21.3299 7.65022 21.8234C8.14374 22.3169 8.42099 22.9863 8.42099 23.6842C8.42099 24.3822 8.14374 25.0515 7.65022 25.545C7.15671 26.0385 6.48735 26.3158 5.78942 26.3158C5.09148 26.3158 4.42213 26.0385 3.92861 25.545C3.43509 25.0515 3.15784 24.3822 3.15784 23.6842C3.15784 22.9863 3.43509 22.3169 3.92861 21.8234C4.42213 21.3299 5.09148 21.0526 5.78942 21.0526ZM14.7368 12.1053C15.4347 12.1053 16.1041 12.3825 16.5976 12.876C17.0911 13.3696 17.3684 14.0389 17.3684 14.7368C17.3684 15.4348 17.0911 16.1041 16.5976 16.5977C16.1041 17.0912 15.4347 17.3684 14.7368 17.3684C14.0388 17.3684 13.3695 17.0912 12.876 16.5977C12.3825 16.1041 12.1052 15.4348 12.1052 14.7368C12.1052 14.0389 12.3825 13.3696 12.876 12.876C13.3695 12.3825 14.0388 12.1053 14.7368 12.1053ZM23.6842 12.1053C24.3821 12.1053 25.0514 12.3825 25.545 12.876C26.0385 13.3696 26.3157 14.0389 26.3157 14.7368C26.3157 15.4348 26.0385 16.1041 25.545 16.5977C25.0514 17.0912 24.3821 17.3684 23.6842 17.3684C22.9862 17.3684 22.3169 17.0912 21.8233 16.5977C21.3298 16.1041 21.0526 15.4348 21.0526 14.7368C21.0526 14.0389 21.3298 13.3696 21.8233 12.876C22.3169 12.3825 22.9862 12.1053 23.6842 12.1053ZM5.78942 12.1053C6.48735 12.1053 7.15671 12.3825 7.65022 12.876C8.14374 13.3696 8.42099 14.0389 8.42099 14.7368C8.42099 15.4348 8.14374 16.1041 7.65022 16.5977C7.15671 17.0912 6.48735 17.3684 5.78942 17.3684C5.09148 17.3684 4.42213 17.0912 3.92861 16.5977C3.43509 16.1041 3.15784 15.4348 3.15784 14.7368C3.15784 14.0389 3.43509 13.3696 3.92861 12.876C4.42213 12.3825 5.09148 12.1053 5.78942 12.1053ZM14.7368 3.1579C15.4347 3.1579 16.1041 3.43515 16.5976 3.92867C17.0911 4.42219 17.3684 5.09154 17.3684 5.78948C17.3684 6.48741 17.0911 7.15677 16.5976 7.65028C16.1041 8.1438 15.4347 8.42106 14.7368 8.42106C14.0388 8.42106 13.3695 8.1438 12.876 7.65028C12.3825 7.15677 12.1052 6.48741 12.1052 5.78948C12.1052 5.09154 12.3825 4.42219 12.876 3.92867C13.3695 3.43515 14.0388 3.1579 14.7368 3.1579ZM23.6842 3.1579C24.3821 3.1579 25.0514 3.43515 25.545 3.92867C26.0385 4.42219 26.3157 5.09154 26.3157 5.78948C26.3157 6.48741 26.0385 7.15677 25.545 7.65028C25.0514 8.1438 24.3821 8.42106 23.6842 8.42106C22.9862 8.42106 22.3169 8.1438 21.8233 7.65028C21.3298 7.15677 21.0526 6.48741 21.0526 5.78948C21.0526 5.09154 21.3298 4.42219 21.8233 3.92867C22.3169 3.43515 22.9862 3.1579 23.6842 3.1579ZM5.78942 3.1579C6.48735 3.1579 7.15671 3.43515 7.65022 3.92867C8.14374 4.42219 8.42099 5.09154 8.42099 5.78948C8.42099 6.48741 8.14374 7.15677 7.65022 7.65028C7.15671 8.1438 6.48735 8.42106 5.78942 8.42106C5.09148 8.42106 4.42213 8.1438 3.92861 7.65028C3.43509 7.15677 3.15784 6.48741 3.15784 5.78948C3.15784 5.09154 3.43509 4.42219 3.92861 3.92867C4.42213 3.43515 5.09148 3.1579 5.78942 3.1579Z" fill="black"/>
</g>
<defs>
<clipPath id="clip0_10_13">
<rect width="20" height="20" fill="white"/>
</clipPath>
</defs>
</svg>
